<svg xmlns="http://www.w3.org/2000/svg" xmlns:xlink="http://www.w3.org/1999/xlink" viewBox="0 0 570.7 459.68"><defs><style>.cls-1{fill:none;}.cls-2{isolation:isolate;}.cls-3{fill:url(#linear-gradient);}.cls-11,.cls-4,.cls-5,.cls-66{fill:#fff;}.cls-4{opacity:0.1;}.cls-5{mix-blend-mode:soft-light;}.cls-6{fill:url(#linear-gradient-2);}.cls-7{fill:url(#linear-gradient-3);}.cls-8{fill:url(#linear-gradient-4);}.cls-9{fill:url(#linear-gradient-5);}.cls-10{fill:url(#linear-gradient-6);}.cls-12{fill:url(#linear-gradient-7);}.cls-13{fill:url(#linear-gradient-8);}.cls-14{fill:url(#linear-gradient-9);}.cls-15{fill:url(#linear-gradient-10);}.cls-16{fill:url(#linear-gradient-11);}.cls-17{fill:url(#linear-gradient-12);}.cls-18{clip-path:url(#clip-path);}.cls-19{fill:url(#linear-gradient-13);}.cls-20{fill:url(#linear-gradient-14);}.cls-21{fill:url(#linear-gradient-15);}.cls-22{fill:url(#linear-gradient-16);}.cls-23{fill:url(#linear-gradient-17);}.cls-24{fill:url(#linear-gradient-18);}.cls-25{fill:url(#linear-gradient-19);}.cls-26{fill:url(#linear-gradient-20);}.cls-27{fill:url(#linear-gradient-21);}.cls-28{fill:url(#linear-gradient-22);}.cls-29{fill:url(#linear-gradient-23);}.cls-30{fill:url(#linear-gradient-24);}.cls-31{fill:url(#linear-gradient-25);}.cls-32{fill:url(#linear-gradient-26);}.cls-33{fill:url(#linear-gradient-27);}.cls-34{fill:url(#linear-gradient-28);}.cls-35{fill:url(#linear-gradient-29);}.cls-36{fill:url(#linear-gradient-30);}.cls-37{fill:url(#linear-gradient-31);}.cls-38{fill:url(#linear-gradient-32);}.cls-39{fill:url(#linear-gradient-33);}.cls-40{fill:url(#linear-gradient-34);}.cls-41{fill:url(#linear-gradient-35);}.cls-42{fill:url(#linear-gradient-36);}.cls-43{fill:url(#linear-gradient-37);}.cls-44{fill:url(#linear-gradient-38);}.cls-45{fill:url(#linear-gradient-39);}.cls-46{fill:url(#linear-gradient-40);}.cls-47{fill:url(#linear-gradient-41);}.cls-48{fill:url(#linear-gradient-42);}.cls-49{fill:url(#linear-gradient-43);}.cls-50{fill:url(#linear-gradient-44);}.cls-51{fill:url(#linear-gradient-45);}.cls-52{fill:url(#linear-gradient-46);}.cls-53{fill:url(#linear-gradient-47);}.cls-54{fill:url(#linear-gradient-48);}.cls-55{fill:url(#linear-gradient-49);}.cls-56{fill:url(#linear-gradient-50);}.cls-57{fill:url(#linear-gradient-51);}.cls-58{fill:url(#linear-gradient-52);}.cls-59{fill:url(#linear-gradient-53);}.cls-60{fill:url(#linear-gradient-54);}.cls-61{fill:url(#linear-gradient-55);}.cls-62{fill:url(#linear-gradient-56);}.cls-63{opacity:0.6;}.cls-64{fill:url(#Новый_образец_градиентной_залив);}.cls-65{fill:url(#linear-gradient-57);}.cls-66{opacity:0.73;}.cls-67{fill:url(#linear-gradient-58);}</style><linearGradient id="linear-gradient" x1="212.97" y1="121.48" x2="249.04" y2="494.89" gradientTransform="translate(485.81 30.05) rotate(87.49)" gradientUnits="userSpaceOnUse"><stop offset="0" stop-color="#53d8ff"/><stop offset="1" stop-color="#3840f7"/></linearGradient><linearGradient id="linear-gradient-2" x1="165.77" y1="325.19" x2="123.61" y2="461.32" gradientUnits="userSpaceOnUse"><stop offset="0" stop-color="#fdf53f"/><stop offset="1" stop-color="#d93c65"/></linearGradient><linearGradient id="linear-gradient-3" x1="290.82" y1="281.09" x2="248.65" y2="417.22" xlink:href="#linear-gradient-2"/><linearGradient id="linear-gradient-4" x1="218.42" y1="248.84" x2="176.26" y2="384.98" xlink:href="#linear-gradient-2"/><linearGradient id="linear-gradient-5" x1="295.42" y1="374.55" x2="253.26" y2="510.68" xlink:href="#linear-gradient-2"/><linearGradient id="linear-gradient-6" x1="360.58" y1="315.97" x2="318.41" y2="452.11" xlink:href="#linear-gradient-2"/><linearGradient id="linear-gradient-7" x1="29.71" y1="214.44" x2="3.27" y2="244.39" gradientUnits="userSpaceOnUse"><stop offset="0" stop-color="#f9b776"/><stop offset="1" stop-color="#f47960"/></linearGradient><linearGradient id="linear-gradient-8" x1="18.01" y1="223.93" x2="22.38" y2="225.84" xlink:href="#linear-gradient-7"/><linearGradient id="linear-gradient-9" x1="0.67" y1="355.7" x2="89.25" y2="236.87" gradientUnits="userSpaceOnUse"><stop offset="0" stop-color="#2b3582"/><stop offset="1" stop-color="#150e42"/></linearGradient><linearGradient id="linear-gradient-10" x1="149.85" y1="68.34" x2="311.08" y2="355.5" xlink:href="#linear-gradient-2"/><linearGradient id="linear-gradient-11" x1="454.09" y1="105.08" x2="289.89" y2="173.5" xlink:href="#linear-gradient-2"/><linearGradient id="linear-gradient-12" x1="288.64" y1="164.59" x2="353.8" y2="158.67" xlink:href="#linear-gradient-2"/><clipPath id="clip-path"><path class="cls-1" d="M317.89,275.8c-2.24-2.28-7.11-11.05-11.29-33.75-4-21.94-6.26-50.39-6.26-80.11s2.22-58.18,6.26-80.11c4.18-22.7,9.05-31.48,11.29-33.75,2.24,2.28,7.11,11.05,11.29,33.75,4,21.94,35.91,50.39,35.91,80.11S333.22,220.11,329.18,242C325,264.75,320.12,273.52,317.89,275.8Z"/></clipPath><linearGradient id="linear-gradient-13" x1="370.85" y1="157.91" x2="195.12" y2="167.99" xlink:href="#linear-gradient-9"/><linearGradient id="linear-gradient-14" x1="37.98" y1="220.34" x2="31.49" y2="57.23" xlink:href="#linear-gradient-9"/><linearGradient id="linear-gradient-15" x1="-958.6" y1="448.35" x2="-943.43" y2="448.35" gradientTransform="translate(1290.1)" xlink:href="#linear-gradient-9"/><linearGradient id="linear-gradient-16" x1="-920.61" y1="430.45" x2="-975.82" y2="473.8" gradientTransform="translate(1290.1)" xlink:href="#linear-gradient"/><linearGradient id="linear-gradient-17" x1="-954.38" y1="431.08" x2="-957.28" y2="456.38" gradientTransform="translate(1290.1)" xlink:href="#linear-gradient-7"/><linearGradient id="linear-gradient-18" x1="-910.8" y1="442.92" x2="-966.01" y2="486.27" gradientTransform="translate(1290.1)" xlink:href="#linear-gradient"/><linearGradient id="linear-gradient-19" x1="-935.49" y1="448.74" x2="-913.65" y2="448.74" gradientTransform="translate(1290.1)" xlink:href="#linear-gradient-9"/><linearGradient id="linear-gradient-20" x1="-762.4" y1="448.46" x2="-765.3" y2="473.76" gradientTransform="translate(1091.6 -61.77) rotate(-3.61)" xlink:href="#linear-gradient-7"/><linearGradient id="linear-gradient-21" x1="-1601.87" y1="410.23" x2="-1436.65" y2="207.56" gradientTransform="matrix(-1, 0, 0, 1, -1245.85, 0)" xlink:href="#linear-gradient"/><linearGradient id="linear-gradient-22" x1="-897.43" y1="306.7" x2="-865.13" y2="306.7" gradientTransform="translate(1290.1)" xlink:href="#linear-gradient-7"/><linearGradient id="linear-gradient-23" x1="-853.88" y1="281.34" x2="-851.98" y2="329.85" gradientTransform="translate(1290.1)" xlink:href="#linear-gradient"/><linearGradient id="linear-gradient-24" x1="-920.27" y1="277.79" x2="-937.19" y2="295.05" gradientTransform="translate(1290.1)" gradientUnits="userSpaceOnUse"><stop offset="0" stop-color="#fdf53f"/><stop offset="0.29" stop-color="#f2bf4a"/><stop offset="1" stop-color="#d93c65"/></linearGradient><linearGradient id="linear-gradient-25" x1="-877.39" y1="275.76" x2="-928.05" y2="300.96" gradientTransform="translate(1290.1)" xlink:href="#linear-gradient-7"/><linearGradient id="linear-gradient-26" x1="-878.13" y1="269.44" x2="-885.6" y2="277.24" gradientTransform="translate(1290.1)" xlink:href="#linear-gradient-7"/><linearGradient id="linear-gradient-27" x1="-877.15" y1="275.46" x2="-927.81" y2="300.66" gradientTransform="translate(1290.1)" xlink:href="#linear-gradient-7"/><linearGradient id="linear-gradient-28" x1="-564.49" y1="313.14" x2="-650.25" y2="426.27" gradientTransform="translate(890.69 -121.4) rotate(-7.69)" xlink:href="#linear-gradient-24"/><linearGradient id="linear-gradient-29" x1="-942.82" y1="283.63" x2="-936.09" y2="265.24" gradientTransform="translate(1290.1)" xlink:href="#linear-gradient-7"/><linearGradient id="linear-gradient-30" x1="-909.46" y1="305.01" x2="-959.51" y2="391.98" gradientTransform="translate(1290.1)" xlink:href="#linear-gradient-7"/><linearGradient id="linear-gradient-31" x1="-1595.24" y1="298.45" x2="-1583.29" y2="298.45" gradientTransform="matrix(-1, 0, 0, 1, -1245.85, 0)" xlink:href="#linear-gradient-24"/><linearGradient id="linear-gradient-32" x1="-1606.79" y1="285.09" x2="-1586.2" y2="285.09" gradientTransform="matrix(-1, 0, 0, 1, -1245.85, 0)" xlink:href="#linear-gradient-24"/><linearGradient id="linear-gradient-33" x1="-926.27" y1="256.05" x2="-966.38" y2="288" gradientTransform="translate(1290.1)" xlink:href="#linear-gradient-7"/><linearGradient id="linear-gradient-34" x1="-941.76" y1="245.54" x2="-923.37" y2="269.21" gradientTransform="translate(1290.1)" xlink:href="#linear-gradient-9"/><linearGradient id="linear-gradient-35" x1="-930.31" y1="254.3" x2="-950.05" y2="269.4" gradientTransform="translate(1290.1)" xlink:href="#linear-gradient-7"/><linearGradient id="linear-gradient-36" x1="-898.01" y1="314.87" x2="-890.05" y2="314.87" gradientTransform="translate(1290.1)" xlink:href="#linear-gradient-7"/><linearGradient id="linear-gradient-37" x1="-839.28" y1="297.94" x2="-772.33" y2="333.58" gradientTransform="translate(1290.1)" xlink:href="#linear-gradient"/><linearGradient id="linear-gradient-38" x1="-825.17" y1="274.4" x2="-830.35" y2="258.86" gradientTransform="translate(1290.1)" xlink:href="#linear-gradient-7"/><linearGradient id="linear-gradient-39" x1="-826.28" y1="319.72" x2="-771.82" y2="319.72" gradientTransform="translate(1290.1)" gradientUnits="userSpaceOnUse"><stop offset="0" stop-color="#9cfffb"/><stop offset="1" stop-color="#9bfffa"/></linearGradient><linearGradient id="linear-gradient-40" x1="-823.74" y1="319.3" x2="-771.76" y2="319.3" xlink:href="#linear-gradient-39"/><linearGradient id="linear-gradient-41" x1="-796.93" y1="314.14" x2="-785.88" y2="363.68" gradientTransform="translate(1290.1)" xlink:href="#linear-gradient-2"/><linearGradient id="linear-gradient-42" x1="-829.73" y1="281.59" x2="-757.74" y2="319.91" gradientTransform="translate(1290.1)" xlink:href="#linear-gradient"/><linearGradient id="linear-gradient-43" x1="-817.47" y1="297.14" x2="-794.67" y2="309.28" gradientTransform="translate(1290.1)" xlink:href="#linear-gradient"/><linearGradient id="linear-gradient-44" x1="-793.72" y1="319.65" x2="-810.55" y2="352.02" gradientTransform="translate(1290.1)" xlink:href="#linear-gradient-7"/><linearGradient id="linear-gradient-45" x1="2654.69" y1="4109.56" x2="2636.08" y2="4134.18" gradientTransform="matrix(-0.69, -0.73, -0.73, 0.69, 5272.56, -631.73)" xlink:href="#linear-gradient-7"/><linearGradient id="linear-gradient-46" x1="2640.48" y1="4115.47" x2="2662.71" y2="4115.47" gradientTransform="matrix(-0.69, -0.73, -0.73, 0.69, 5272.56, -631.73)" xlink:href="#linear-gradient-9"/><linearGradient id="linear-gradient-47" x1="2627.43" y1="4129.06" x2="2642.36" y2="4113.74" gradientTransform="matrix(-0.69, -0.73, -0.73, 0.69, 5272.56, -631.73)" xlink:href="#linear-gradient-7"/><linearGradient id="linear-gradient-48" x1="313.88" y1="454.44" x2="337.01" y2="454.44" gradientTransform="matrix(-1, 0, 0, 1, 802.07, 0)" xlink:href="#linear-gradient"/><linearGradient id="linear-gradient-49" x1="313.88" y1="449.91" x2="336.36" y2="449.91" gradientTransform="matrix(-1, 0, 0, 1, 802.07, 0)" xlink:href="#linear-gradient-9"/><linearGradient id="linear-gradient-50" x1="316.02" y1="443.58" x2="322.53" y2="443.58" gradientTransform="matrix(-1, 0, 0, 1, 802.07, 0)" xlink:href="#linear-gradient-7"/><linearGradient id="linear-gradient-51" x1="267.76" y1="453.94" x2="276.63" y2="453.94" gradientTransform="matrix(-1, 0, 0, 1, 802.07, 0)" xlink:href="#linear-gradient"/><linearGradient id="linear-gradient-52" x1="267.83" y1="447.12" x2="280.84" y2="447.12" gradientTransform="matrix(-1, 0, 0, 1, 802.07, 0)" xlink:href="#linear-gradient-9"/><linearGradient id="linear-gradient-53" x1="274.59" y1="438.14" x2="282.38" y2="438.14" gradientTransform="matrix(-1, 0, 0, 1, 802.07, 0)" xlink:href="#linear-gradient-7"/><linearGradient id="linear-gradient-54" x1="-2055.66" y1="444.26" x2="-1936.83" y2="279.98" gradientTransform="matrix(-1, 0, 0, 1, -1530.93, 0)" xlink:href="#linear-gradient-9"/><linearGradient id="linear-gradient-55" x1="499.07" y1="-5.37" x2="361.42" y2="207.8" gradientTransform="matrix(1, 0, 0, 1, 0, 0)" xlink:href="#linear-gradient"/><linearGradient id="linear-gradient-56" x1="424.25" y1="91.51" x2="422.56" y2="264.49" gradientUnits="userSpaceOnUse"><stop offset="0" stop-color="#a737d5"/><stop offset="1" stop-color="#ef497a"/></linearGradient><linearGradient id="Новый_образец_градиентной_залив" x1="445.68" y1="202.67" x2="550.1" y2="79.74" gradientUnits="userSpaceOnUse"><stop offset="0" stop-color="#fdf53f"/><stop offset="0.66" stop-color="#e57a58"/><stop offset="1" stop-color="#d93c65"/></linearGradient><linearGradient id="linear-gradient-57" x1="495.47" y1="117.92" x2="555.89" y2="117.92" xlink:href="#linear-gradient-56"/><linearGradient id="linear-gradient-58" x1="529.2" y1="64.22" x2="570.7" y2="64.22" gradientUnits="userSpaceOnUse"><stop offset="0" stop-color="#cb236d"/><stop offset="1" stop-color="#4c246d"/></linearGradient></defs><title>blog</title><g class="cls-2"><g id="Слой_2" data-name="Слой 2"><g id="Layer_1" data-name="Layer 1"><ellipse class="cls-3" cx="227.2" cy="268.83" rx="190.81" ry="205.96" transform="translate(-51.33 484.02) rotate(-87.49)"/><ellipse class="cls-4" cx="216.1" cy="254.85" rx="161.62" ry="152.68"/><path class="cls-5" d="M279.82,269.75c0,33.65-2.36,67.38-8.29,100.55-1.5,8.29-3.24,16.54-5.32,24.7a238,238,0,0,1-7.42,24.18A114.58,114.58,0,0,1,247.72,442a45.51,45.51,0,0,1-8.31,9.69,23.68,23.68,0,0,1-5.44,3.51,16.29,16.29,0,0,1-6.35,1.5,16,16,0,0,1-6.42-1.18,22.26,22.26,0,0,1-5.57-3.31,43.21,43.21,0,0,1-8.49-9.54,110.89,110.89,0,0,1-11.23-22.71,232.73,232.73,0,0,1-7.5-24.15c-2.09-8.16-3.85-16.41-5.37-24.69-3-16.57-5.08-33.31-6.47-50.08s-2.07-33.62-2.16-50.45c0-8.42.19-16.83.49-25.25s.78-16.82,1.4-25.21c1.25-16.79,3.1-33.53,5.87-50.15,1.39-8.3,3-16.57,5-24.77a238.15,238.15,0,0,1,7-24.27c1.41-4,3-7.9,4.72-11.74a85.74,85.74,0,0,1,6-11.14,41.51,41.51,0,0,1,8.31-9.6,21.21,21.21,0,0,1,5.49-3.29A15.49,15.49,0,0,1,225,84a16.75,16.75,0,0,1,6.24,1.46,24.38,24.38,0,0,1,5.42,3.38,46.28,46.28,0,0,1,8.48,9.44,113.63,113.63,0,0,1,11.64,22.44,230.2,230.2,0,0,1,8,24c2.25,8.12,4.15,16.33,5.79,24.59C277.08,202.36,279.72,236.09,279.82,269.75Zm-2.49,0c0-16.77-.61-33.54-2-50.25a483.93,483.93,0,0,0-6.56-49.85c-1.55-8.24-3.35-16.43-5.5-24.53a228.83,228.83,0,0,0-7.67-23.92,112.54,112.54,0,0,0-11.27-22.34,45.37,45.37,0,0,0-8.21-9.34,23.55,23.55,0,0,0-5.2-3.33A15.56,15.56,0,0,0,225,84.75a14.58,14.58,0,0,0-6,1.13,20.38,20.38,0,0,0-5.24,3.22,40.6,40.6,0,0,0-8,9.48,84.65,84.65,0,0,0-5.85,11.06c-1.7,3.82-3.19,7.73-4.55,11.69a236.75,236.75,0,0,0-6.72,24.2c-1.85,8.17-3.37,16.42-4.66,24.71-2.57,16.57-4.24,33.28-5.3,50s-1.44,33.52-1.41,50.29.52,33.54,1.76,50.26,3.18,33.4,6.06,49.91c1.44,8.26,3.13,16.47,5.15,24.6a231,231,0,0,0,7.26,24,109.37,109.37,0,0,0,10.89,22.46,41.8,41.8,0,0,0,8.12,9.29,20.89,20.89,0,0,0,5.2,3.15,14.34,14.34,0,0,0,5.88,1.12,15,15,0,0,0,5.82-1.42,22.31,22.31,0,0,0,5.09-3.34,44.08,44.08,0,0,0,8-9.45,113,113,0,0,0,10.73-22.55,236.2,236.2,0,0,0,7.17-24c2-8.13,3.66-16.35,5.09-24.61,2.86-16.52,4.76-33.2,6-49.92S277.34,286.52,277.33,269.75Z"/><path class="cls-5" d="M364.72,269.75A245.34,245.34,0,0,1,356,334a206.88,206.88,0,0,1-26.88,58.92,169.69,169.69,0,0,1-20.53,25.14,144,144,0,0,1-25.27,20.35,121.83,121.83,0,0,1-29.49,13.48,110.3,110.3,0,0,1-64.12,0,121.88,121.88,0,0,1-29.51-13.46,144.17,144.17,0,0,1-25.31-20.33A169.81,169.81,0,0,1,114.32,393a207.18,207.18,0,0,1-27-58.94,233.37,233.37,0,0,1-6.53-31.86,239.55,239.55,0,0,1,0-64.89,233.22,233.22,0,0,1,6.55-31.85,207.1,207.1,0,0,1,27-58.9A169.73,169.73,0,0,1,135,121.45a143.7,143.7,0,0,1,25.3-20.3,122.37,122.37,0,0,1,29.49-13.41,109.52,109.52,0,0,1,64,0,122.28,122.28,0,0,1,29.47,13.44,143.57,143.57,0,0,1,25.27,20.31,169.58,169.58,0,0,1,20.54,25.12A206.78,206.78,0,0,1,356,205.51,245.31,245.31,0,0,1,364.72,269.75Zm-2.86,0a242.61,242.61,0,0,0-8.35-63.56,206,206,0,0,0-26-58.52,167.88,167.88,0,0,0-20.07-25.07,140.23,140.23,0,0,0-24.82-20.35,119.93,119.93,0,0,0-29.11-13.46,106.81,106.81,0,0,0-63.39,0A119.85,119.85,0,0,0,161,102.3a140.13,140.13,0,0,0-24.79,20.37,167.79,167.79,0,0,0-20,25.08,205.66,205.66,0,0,0-26,58.5A235,235,0,0,0,84,237.72a244.84,244.84,0,0,0,0,64.05,234.85,234.85,0,0,0,6.26,31.47,205.58,205.58,0,0,0,26,58.46,167.68,167.68,0,0,0,20,25,139.64,139.64,0,0,0,24.78,20.33,120.34,120.34,0,0,0,29.07,13.43,106.06,106.06,0,0,0,63.29,0,120.38,120.38,0,0,0,29.09-13.41,139.78,139.78,0,0,0,24.82-20.32,167.79,167.79,0,0,0,20.07-25,205.88,205.88,0,0,0,26.06-58.48A242.59,242.59,0,0,0,361.86,269.75Z"/><path class="cls-5" d="M55,195.78l42.93-.35,42.93-.2,85.85-.16,85.85.17,42.93.21,42.93.37a.13.13,0,0,1,0,.25l-42.93.37-42.93.21-85.85.17-85.85-.16-42.93-.2L55,196.16a.19.19,0,0,1,0-.38Z"/><path class="cls-5" d="M104.78,123.88c10.16-.16,20.32-.23,30.48-.35l30.48-.2c10.16-.08,20.32-.07,30.48-.1l30.48-.06,61,.17,30.48.21c10.16.13,20.32.2,30.48.37a.13.13,0,0,1,0,.25c-10.16.17-20.32.25-30.48.37l-30.48.21-61,.17-30.48-.06c-10.16,0-20.32,0-30.48-.1l-30.48-.2c-10.16-.12-20.32-.19-30.48-.35a.19.19,0,0,1,0-.38Z"/><path class="cls-5" d="M40.06,267.68l46.66-.35,46.66-.2,93.31-.16,93.31.17,46.66.21,46.66.37a.13.13,0,0,1,0,.25l-46.66.37-46.66.21-93.31.17-93.31-.16-46.66-.2-46.66-.35a.19.19,0,0,1,0-.38Z"/><path class="cls-5" d="M55,339.58l42.93-.35,42.93-.2,85.85-.16,85.85.17,42.93.21,42.93.37a.13.13,0,0,1,0,.25l-42.93.37-42.93.21-85.85.17-85.85-.16-42.93-.2L55,340a.19.19,0,0,1,0-.38Z"/><path class="cls-5" d="M354.74,412.33H110.92a.66.66,0,0,1,0-1.32H354.74a.66.66,0,0,1,0,1.32Z"/><circle class="cls-6" cx="149.18" cy="378.75" r="9.21"/><circle class="cls-7" cx="274.23" cy="334.65" r="9.21"/><circle class="cls-8" cx="201.83" cy="302.41" r="9.21"/><circle class="cls-9" cx="278.83" cy="428.11" r="9.21"/><circle class="cls-10" cx="343.99" cy="369.54" r="9.21"/><path class="cls-11" d="M201.47,403a67.5,67.5,0,0,1-40.82-14l.8-1a65.5,65.5,0,0,0,49.28,13c17.11-2.6,33.27-12.54,44.33-27.27a67.11,67.11,0,0,0,10.63-20.49l1.26.39a68.42,68.42,0,0,1-10.84,20.89c-11.27,15-27.74,25.13-45.19,27.78A63,63,0,0,1,201.47,403Z"/><path class="cls-11" d="M315.09,379c-7.63,0-14.05-1.93-19.21-5.79-13-9.7-13.11-28.46-13.11-28.65h1.32c0,.18.16,18.3,12.59,27.6,8.43,6.31,20.52,7.22,35.93,2.7l.37,1.26A64.13,64.13,0,0,1,315.09,379Z"/><path class="cls-11" d="M167.51,379.81a3,3,0,0,1-2.44-1.08l1-.83c1.15,1.42,4-.14,4.52-.46,12.22-7.23,22.14-16.78,28.69-27.62,7.24-12,10.37-25.61,8.81-38.39l1.31-.16c1.59,13.06-1.61,27-9,39.22-6.66,11-16.74,20.73-29.15,28.07A7.68,7.68,0,0,1,167.51,379.81Z"/><path class="cls-11" d="M289.38,416.86l-1.24-.45c1.59-4.32,4.75-7.86,7.92-11a131.14,131.14,0,0,1,27.67-21.21c3.83-2.2,8-4.34,12.63-5.1l.21,1.3c-4.4.72-8.46,2.8-12.19,4.94a129.83,129.83,0,0,0-27.39,21C293.93,409.37,290.89,412.78,289.38,416.86Z"/><path class="cls-12" d="M17,230c-.06.52-2,.49-2.21-1.83.36-.92,1.51-5,2.37-5.53a78.74,78.74,0,0,1,12.32-5.14,1.45,1.45,0,0,1-.64,1.92L24.9,221a14.3,14.3,0,0,1,.21,3.81,4.14,4.14,0,0,1-1.6,2.63c-.85.65-2,1.48-3,2.08A4.09,4.09,0,0,1,17,230Z"/><path class="cls-13" d="M19.25,228.66l-.55-.37c.26-.39,2.61-3.88,3.57-4.55.36-.25.56-.49.59-.7a.54.54,0,0,0-.09-.34l-3.07.92-1.63,1.68-.47-.46,1.74-1.8,3.67-1.1.14.17a1.3,1.3,0,0,1,.35,1,1.77,1.77,0,0,1-.87,1.15A28.88,28.88,0,0,0,19.25,228.66Z"/><path class="cls-14" d="M9,209S49.58,315.88,62.39,338.12c14.87,25.82,58.29,9.37,56.12-12.24S65.62,215,65.62,215Z"/><polygon class="cls-15" points="63.82 131.09 315.77 43.73 313.13 280.13 56.93 222.97 63.82 131.09"/><ellipse class="cls-16" cx="316.01" cy="162.62" rx="24.75" ry="121.49"/><path class="cls-17" d="M317.89,275.8c-2.24-2.28-7.11-11.05-11.29-33.75-4-21.94-6.26-50.39-6.26-80.11s2.22-58.18,6.26-80.11c4.18-22.7,9.05-31.48,11.29-33.75,2.24,2.28,7.11,11.05,11.29,33.75,4,21.94,6.26,50.39,6.26,80.11s-2.22,58.18-6.26,80.11C325,264.75,320.12,273.52,317.89,275.8Z"/><g class="cls-18"><path class="cls-19" d="M349.61,161c0,20.64-11.12,37.38-33.13,37.38S276.64,181.67,276.64,161s17.84-37.38,39.85-37.38S349.61,140.39,349.61,161Z"/></g><path class="cls-20" d="M23.18,126a141.16,141.16,0,0,1,47.22,2.34c-6.05,31.63-5.14,64.59,1.86,98.72H20.43A16.8,16.8,0,0,1,3.84,212.9C1.25,196.54-1.91,169,1.46,147A24.86,24.86,0,0,1,23.18,126Z"/><path class="cls-11" d="M54.29,150.18H13.9a3.63,3.63,0,0,1-3-5.6,1,1,0,0,1,1.66,1.07,1.66,1.66,0,0,0,1.39,2.56H54.29a1.66,1.66,0,0,0,1.66-1.66v-2.87A1.66,1.66,0,0,0,54.29,142H13.6a1,1,0,0,1,0-2H54.29a3.64,3.64,0,0,1,3.63,3.63v2.87A3.64,3.64,0,0,1,54.29,150.18Z"/><path class="cls-11" d="M50.68,168.06H10.3a3.63,3.63,0,0,1-3-5.6,1,1,0,1,1,1.66,1.07,1.66,1.66,0,0,0,1.39,2.56H50.68a1.66,1.66,0,0,0,1.66-1.66v-2.87a1.66,1.66,0,0,0-1.66-1.66H10a1,1,0,0,1,0-2H50.68a3.64,3.64,0,0,1,3.63,3.63v2.87A3.64,3.64,0,0,1,50.68,168.06Z"/><path class="cls-11" d="M100.43,124.64a1,1,0,0,1-.3-1.93L291,62a1,1,0,0,1,.6,1.88L100.73,124.59A1,1,0,0,1,100.43,124.64Z"/><path class="cls-11" d="M74.62,135.19a1,1,0,0,1-.37-1.9l9.82-4a1,1,0,1,1,.75,1.83l-9.82,4A1,1,0,0,1,74.62,135.19Z"/><path class="cls-11" d="M54.29,189H13.9a3.63,3.63,0,0,1-3-5.6,1,1,0,1,1,1.66,1.07A1.66,1.66,0,0,0,13.9,187H54.29a1.66,1.66,0,0,0,1.66-1.66V182.5a1.66,1.66,0,0,0-1.66-1.66H13.6a1,1,0,0,1,0-2H54.29a3.64,3.64,0,0,1,3.63,3.63v2.87A3.64,3.64,0,0,1,54.29,189Z"/><path class="cls-11" d="M58.07,212.26H17.68a3.63,3.63,0,0,1-3-5.6,1,1,0,1,1,1.66,1.07,1.66,1.66,0,0,0,1.39,2.56H58.07a1.66,1.66,0,0,0,1.66-1.66v-2.87a1.66,1.66,0,0,0-1.66-1.66H17.38a1,1,0,0,1,0-2H58.07a3.64,3.64,0,0,1,3.63,3.63v2.87A3.64,3.64,0,0,1,58.07,212.26Z"/><path class="cls-11" d="M94.13,338.66a26.32,26.32,0,0,1-5.61-.61,25.94,25.94,0,0,1-18.3-14.82L38,251.55a1,1,0,1,1,1.8-.81L72,322.42a24,24,0,0,0,16.92,13.7,23.49,23.49,0,0,0,20.68-5.29l.92-.82a1,1,0,0,1,1.33,1.46l-.95.85A25.37,25.37,0,0,1,94.13,338.66Z"/><path class="cls-11" d="M34.09,241.54a1,1,0,0,1-.9-.58l-3.6-8a1,1,0,1,1,1.8-.81l3.6,8a1,1,0,0,1-.9,1.39Z"/><path class="cls-11" d="M343.72,159.9a1,1,0,0,1-1-.92c-.72-10.12-4.23-17.67-10.43-22.44-10.72-8.24-26.06-5.42-26.21-5.39a1,1,0,0,1-.37-1.94c.66-.13,16.34-3,27.78,5.75,6.68,5.13,10.45,13.16,11.21,23.88a1,1,0,0,1-.91,1.05Z"/><path class="cls-21" d="M346.67,453.76a1.31,1.31,0,0,0,0-.34c-1.71-6.78-10.19-11-10.19-11l-3.36.26c-1.93,6-1.68,9.64-1.37,11.27,0,0,0,.09,0,.13A79.77,79.77,0,0,0,346.67,453.76Z"/><path class="cls-22" d="M331.75,454.08a1.46,1.46,0,0,0,1.07,1.08c3.94.83,10.21.16,12.85-.18a1.22,1.22,0,0,0,1-1.22A79.77,79.77,0,0,1,331.75,454.08Z"/><path class="cls-23" d="M331.73,437.68l1.42,6.85a1.12,1.12,0,0,0,1,.92,9.5,9.5,0,0,0,2.21,0,1.41,1.41,0,0,0,1.12-1.66l-1-6.09Z"/><path class="cls-24" d="M361.23,454a20.07,20.07,0,0,1-6.63-.95c0,.37,0,.74,0,1.13a.73.73,0,0,0,.7.75l20.38-.13a.93.93,0,0,0,.75-1.36C373.78,453.66,367,454.16,361.23,454Z"/><path class="cls-25" d="M376.45,453.44a1,1,0,0,0-.08-.15c-1.8-2.52-6.39-7.52-15.45-9.7l-4.35-.14s-1.94,3.36-2,9.6a20.07,20.07,0,0,0,6.63.95C367,454.16,373.78,453.66,376.45,453.44Z"/><path class="cls-26" d="M355.58,437.07c.07.32,1,5.2,1.32,7.09a1,1,0,0,0,.85.8,10,10,0,0,0,3-.23,1.29,1.29,0,0,0,.89-1.35l-.49-7.71Z"/><path class="cls-27" d="M352.29,347s6,41.09,10.29,90a1.86,1.86,0,0,1-1.54,1.89,22.62,22.62,0,0,1-4.86.56,1.8,1.8,0,0,1-1.72-1.5c-1.47-8.62-12-54.88-14.71-65.07,0,0-3.16,43.25-2.15,65.69a1.06,1.06,0,0,1-.94,1.11,17.86,17.86,0,0,1-3.9,0,1.42,1.42,0,0,1-1.27-1.21c-1-7.3-7.07-50.72-6.82-82,0-1.76,2.07-16.26,2.07-16.26Z"/><path class="cls-28" d="M403.54,307.74s-1.67-4.41-3.63-4a13.37,13.37,0,0,0-4.09,1.91l-3.14,4.25s8.82,3.47,11.92,1.48a67.85,67.85,0,0,0,20.38-.31,44.58,44.58,0,0,1-3.2-9.66C416,304.67,409.8,307.1,403.54,307.74Z"/><path class="cls-29" d="M451.24,275.78S438.35,292,421.77,301.41a44.58,44.58,0,0,0,3.2,9.66c8.6-1.41,18.56-4.78,27-12.27Z"/><path class="cls-30" d="M354.6,277.93l.8,21.5a59.08,59.08,0,0,0,6.5,1.85c1.29-4.15,4.13-9.25,6.45-13C359.82,285.22,354.6,277.93,354.6,277.93Z"/><path class="cls-31" d="M397.25,277.56c-11.72,12.65-21.2,13.4-28.89,10.68-2.32,3.79-5.16,8.88-6.45,13,31.29,6.9,38.66-21.87,38.66-21.87Z"/><path class="cls-32" d="M399.62,276.22a4.29,4.29,0,0,1,3.85-1c2.5.46,4.72,1.32,6.28,0s2.1.45,2.1.45l-4.66,3.54Z"/><path class="cls-33" d="M396.84,278.7s.92-3.87,3.71-3.34,9.11,4,10.74,3.34,3.72-2.15,4.79-1.61l-1.88,2.34s4.84-2.79,5.68-1.08l-8.06,4.54S400,281.7,396.84,278.7Z"/><path class="cls-34" d="M325.85,349.39a1.69,1.69,0,0,1-1.11-1.42c-.8-7.71-4.64-55.54,19.66-75.22,0,0,1.39-3.65,12.85,5.32s5.32,18.36,2.58,31.32c-3.32,15.68-9.14,28.5-6.57,38.15a1.34,1.34,0,0,1-.82,1.6A38,38,0,0,1,325.85,349.39Z"/><path class="cls-35" d="M353.88,258.42c0,.68-9.71,14.47-9.71,14.47s1.74,3.43,10.06,6.22l7.18-14.76Z"/><path class="cls-36" d="M350.06,305.75s18.41,15.42,38.3,8.69a4.73,4.73,0,0,1,3.73.28l5.72,3a5.1,5.1,0,0,0,6.76-1.89,10.74,10.74,0,0,0,1.61-4.3L395,307l.82-1.37s-5.46-.46-6.89,3.45c0,0-10.4,4.33-27.94-15C361,294.13,353,300.9,350.06,305.75Z"/><path class="cls-37" d="M349.07,305.59a.31.31,0,0,1-.18-.05,35.43,35.43,0,0,1-11.44-13.78.32.32,0,0,1,.58-.25A34.76,34.76,0,0,0,349.25,305a.32.32,0,0,1-.18.58Z"/><path class="cls-38" d="M360.62,293.87a.32.32,0,0,1-.27-.14s-2.39-3.72-6.9-11.8a9.09,9.09,0,0,0-5.42-4.68,10.59,10.59,0,0,0-7.22,1,.32.32,0,0,1-.31-.55,11,11,0,0,1,7.69-1,9.69,9.69,0,0,1,5.81,5c4.5,8.06,6.86,11.73,6.88,11.77a.32.32,0,0,1-.09.44A.31.31,0,0,1,360.62,293.87Z"/><path class="cls-39" d="M361.52,250.52s3.45,7.93,3.69,12.1,1.13,6.87-3.69,7.7-8.87-1.56-11.07-5.71c0,0-3.44-6.39-2.67-9S361.52,250.52,361.52,250.52Z"/><path class="cls-40" d="M352.1,261.63l.27-.12a.66.66,0,0,0,.32-.91c-.68-1.31-2-4.32-.29-5,2.2-.9,10.93-2.68,12.81-5.78a5.76,5.76,0,0,0-2.2-7.91.33.33,0,0,0-.43.14l-.2.38a.33.33,0,0,1-.6-.06h0a.33.33,0,0,0-.59-.08c-.58.93-2.14,2.43-6.32,3.2-5.94,1.1-9.87,3.5-10,7.6a.33.33,0,0,1-.51.27c-.44-.27-1.14-.39-2.08.4-1.63,1.37-1,4.93,2.61,7.86a.32.32,0,0,1,0,.52c-.65.42-1.61,1.43.89,2.76a8.43,8.43,0,0,0,5.27,1.15.33.33,0,0,0,.26-.39l-.79-3.61a.33.33,0,0,1,.32-.4Z"/><path class="cls-41" d="M352.25,262.39s-1.32-5.07-3.59-3.65,1.18,5.68,3,5.87Z"/><path class="cls-42" d="M392.09,314.72s4.68,4.58,5.58,3.91a16.46,16.46,0,0,0,1.92-2.06,2,2,0,0,0,.14-2.37l-1.1-1.7a3.19,3.19,0,0,0-4.76-.69A5.78,5.78,0,0,0,392.09,314.72Z"/><path class="cls-43" d="M467.32,347.76c-2.52-12-5-18.91-13.49-41.61-2.66-7.14-5.07-14.37-3.9-21.91l1.31-8.46a63.36,63.36,0,0,1,34.6-.23s24.81,10.78,8,64C486.2,348.07,477.31,350.49,467.32,347.76Z"/><path class="cls-44" d="M454,265l4.25,10.22a2,2,0,0,0,1.54,1.22c2.45.42,8.39,1.08,12.28-1.48a1,1,0,0,0,.26-1.39l-7.86-11.29Z"/><path class="cls-45" d="M464.53,313a.94.94,0,0,0-.6,1.35L476.24,338a.94.94,0,0,0,1.1.47l40.26-11.62a.94.94,0,0,0,.65-1.17l-6.94-24a.94.94,0,0,0-1.15-.65Z"/><path class="cls-46" d="M467.13,310.25a1,1,0,0,0-.7,1.3l9.85,26.76a1,1,0,0,0,1.2.61l40.14-11.59a1,1,0,0,0,.69-1.16l-5.56-25.76a1,1,0,0,0-1.2-.75Z"/><path class="cls-47" d="M470.62,307.55a1.22,1.22,0,0,0-1,1.48l6.69,28.89a1.22,1.22,0,0,0,1.53.9l39.53-11.41a1.22,1.22,0,0,0,.84-1.48l-6.08-23.58a1.22,1.22,0,0,0-1.37-.9Z"/><path class="cls-48" d="M502.62,318.57c3.07-23.18-14.79-41-14.79-41L477.2,290c8.07,10.06,11.9,19.27,13.66,26.51C493.18,315.79,498.78,314.72,502.62,318.57Z"/><path class="cls-49" d="M490.86,317.12a.66.66,0,0,1-.64-.5c-2.16-8.92-6.71-17.76-13.53-26.25a.66.66,0,1,1,1-.82c6.94,8.65,11.58,17.66,13.78,26.77a.66.66,0,0,1-.48.79Z"/><path class="cls-50" d="M490.86,316.47a42.58,42.58,0,0,1,1.21,14.14,1.87,1.87,0,0,1-1.73,1.67l-3.68.24a6.87,6.87,0,0,1-3.92-1.52.61.61,0,0,0-.9.78c.76,1.49,2.7,2.82,4,3.6a.64.64,0,0,1-.15,1.16l-5.7,1.62c9.37,8.83,15.56-1,15.56-1a44.69,44.69,0,0,0,7.06-18.54C498.78,314.72,493.18,315.79,490.86,316.47Z"/><path class="cls-51" d="M458.43,249.35c-.18.17-7.54,14.63-7.54,14.63l8.34,4,9-12.67S461.43,246.53,458.43,249.35Z"/><path class="cls-52" d="M464.46,256.85l-4.16,6.94a1.3,1.3,0,0,1-.23.28c-.5.46-2.19,1.8-3.5,0a11.74,11.74,0,0,0-3.29-3.56,1.33,1.33,0,0,0-1.8.59,49.68,49.68,0,0,0-2.85,6.76,1.32,1.32,0,0,0,.77,1.62,36.91,36.91,0,0,0,8,2.33,1.33,1.33,0,0,0,1.26-.53c1.27-1.75,4.87-6.63,6.1-7.85s3.24-.71,4.19-.43a1.34,1.34,0,0,0,1.06-.14,2.93,2.93,0,0,0,1.1-4.46,1.33,1.33,0,0,1,.41-1.81,2.94,2.94,0,0,0,1.13-4.18,4.15,4.15,0,0,0-4.5-2.2,1.38,1.38,0,0,1-1.45-.81.88.88,0,0,0-.69-.54,1.29,1.29,0,0,1-1-1.52,3.41,3.41,0,0,0-1.9-3.91c-3.6-2-6.75,1.25-7.56,4s3.22,4.65,5.76,5c1.86.24,2.88,2.27,3.29,3.33A1.33,1.33,0,0,1,464.46,256.85Z"/><path class="cls-53" d="M463.19,266s1.6-4.68,3.65-4.51,3.66,2.21,1.12,4.51C464.8,268.82,463.19,266,463.19,266Z"/><path class="cls-54" d="M465.71,453.32c4,.34,10.84.9,16.26,1.14a15.66,15.66,0,0,0,6.22-.61c0,.12,0,.24,0,.34a1.12,1.12,0,0,1-1.07,1.06,190.51,190.51,0,0,1-21.29,0,.8.8,0,0,1-.65-1.2A6.55,6.55,0,0,1,465.71,453.32Z"/><path class="cls-55" d="M482,454.46c-5.42-.24-12.3-.8-16.26-1.14,3.9-4.78,16.26-8,16.26-8h3.49a14.65,14.65,0,0,1,2.72,8.53A15.66,15.66,0,0,1,482,454.46Z"/><path class="cls-56" d="M486.05,439.62l-.33,6.47a1.48,1.48,0,0,1-1.26,1.39,5.74,5.74,0,0,1-2.62-.22,1.75,1.75,0,0,1-1.17-1.34l-1.13-6.3Z"/><path class="cls-57" d="M531.42,454.41a3.14,3.14,0,0,0,2.82-2.09v0a2.23,2.23,0,0,1-1.51,2.55,9.83,9.83,0,0,1-4.17.65,4.14,4.14,0,0,1-3.12-1.44h0C526.73,454.73,528.55,454.81,531.42,454.41Z"/><path class="cls-58" d="M523.31,439.58h2.88c4.39-.09,7.14,9.16,8,12.75a3.14,3.14,0,0,1-2.82,2.09c-2.87.4-4.68.32-6-.32-2.37-3.12-3.55-7.69-4.11-10.35A3.64,3.64,0,0,1,523.31,439.58Z"/><path class="cls-59" d="M525.82,433.57l1.6,6.36a1.73,1.73,0,0,1-.9,2,6.13,6.13,0,0,1-3.31.8,1.44,1.44,0,0,1-1.18-1L519.69,435Z"/><path class="cls-60" d="M527.73,435.41c-2,1.77-8.46,2-8.46,2-23.32-56-33-71.36-33-71.36,3.37,21.12.73,75.34.73,75.34-3.85,1.7-8.81,0-8.81,0-.31-34.58-5.18-71.74-11.46-95.51,15.76-.35,24.32-3.79,27.06-6C506.89,361.1,527.73,435.41,527.73,435.41Z"/><path class="cls-61" d="M420.06.88,518,0a3.44,3.44,0,0,1,3.47,3.46L521,78.6A3.44,3.44,0,0,1,517.48,82c-17.7-.53-96.3-2.86-99.77-2.71s-1.57-60.22-1.05-75.11A3.44,3.44,0,0,1,420.06.88Z"/><path class="cls-11" d="M517.59,79.3h0c-19.8-.59-85.38-2.53-97.94-2.71h-.27l0-.27c-1.23-6.93-1.2-35.21.06-72a.72.72,0,0,1,.72-.7L518,2.72a.72.72,0,0,1,.52.22.71.71,0,0,1,.21.51l-.43,75.14A.72.72,0,0,1,517.59,79.3Zm-97.68-3.36c13.21.2,78,2.12,97.67,2.7h0a.07.07,0,0,0,0-.07l.43-75.14L518,3v.33l-97.92.88a.07.07,0,0,0-.07.06C418.78,40.64,418.73,68.62,419.91,75.94Z"/><path class="cls-11" d="M431.88,69.53h64.19a2.58,2.58,0,0,0,2.23-3.89l-25.41-43.2a2.58,2.58,0,0,0-4.58.24L456,49.56a2.58,2.58,0,0,1-4.1.83l-5-4.55a2.58,2.58,0,0,0-3.87.43l-13.35,19.2A2.58,2.58,0,0,0,431.88,69.53Z"/><circle class="cls-11" cx="495.19" cy="21.13" r="9.23"/><path class="cls-62" d="M361.66,144.74a1.34,1.34,0,0,1,.26-2.6c6.41-.83,15.81-3.34,18.89-10.87,4.83-11.81-5.17-57.32,40.78-65.47,42.39-7.51,66,5.9,65.47,45.07C486.54,148.85,425.52,166.65,361.66,144.74Z"/><g class="cls-63"><rect class="cls-11" x="394.16" y="101.8" width="4.32" height="33.82"/><rect class="cls-11" x="401.38" y="113.42" width="4.32" height="22.2"/><rect class="cls-11" x="408.6" y="84.69" width="4.32" height="50.93"/><rect class="cls-11" x="415.83" y="123.38" width="4.32" height="12.24"/><rect class="cls-11" x="423.05" y="91.5" width="4.32" height="44.12"/><rect class="cls-11" x="430.27" y="99.14" width="4.32" height="36.48"/><rect class="cls-11" x="437.5" y="107.44" width="4.32" height="28.18"/><rect class="cls-11" x="444.72" y="74.39" width="4.32" height="61.23"/><rect class="cls-11" x="451.94" y="80.87" width="4.32" height="54.75"/><rect class="cls-11" x="459.17" y="90.67" width="4.32" height="44.95"/><rect class="cls-11" x="466.39" y="124.52" width="4.32" height="11.1"/></g><path class="cls-64" d="M492,204.06l-41.34,2.35a6.34,6.34,0,0,1-6.69-5.88l-3.45-48a6.34,6.34,0,0,1,6.33-6.8h44.79a6.34,6.34,0,0,1,6.34,6.34v45.61A6.34,6.34,0,0,1,492,204.06Z"/><path class="cls-11" d="M469.25,200.82a6,6,0,0,1-5.18-2.92c-6.1-10.08-13.38-23.37-13.38-29.4,0-9.45,8.33-17.14,18.56-17.14s18.56,7.69,18.56,17.14c0,6-7.28,19.32-13.38,29.4A6,6,0,0,1,469.25,200.82Zm0-46.83c-8.78,0-15.93,6.51-15.93,14.51,0,4.17,4.74,14.39,13,28a3.42,3.42,0,0,0,5.86,0c8.26-13.65,13-23.87,13-28C485.18,160.5,478,154,469.25,154Z"/><path class="cls-11" d="M467.83,180.51a11.57,11.57,0,0,1-11.56-11.56,1.32,1.32,0,1,1,2.63,0,8.93,8.93,0,1,0,1.77-5.33,1.32,1.32,0,1,1-2.11-1.57,11.56,11.56,0,1,1,9.27,18.47Z"/><path class="cls-65" d="M495.47,99.06v35.64a7.93,7.93,0,0,0,7.56,7.92l44.56,2.09a7.93,7.93,0,0,0,8.3-7.92V99.06A7.93,7.93,0,0,0,548,91.13H503.4A7.93,7.93,0,0,0,495.47,99.06Z"/><path class="cls-66" d="M511.62,136h-1.45a1.32,1.32,0,0,1-.32-2.6h0a64.77,64.77,0,0,0,9.9-3.91c-13.1-1.07-15.72-7.8-16.23-10.88C502.25,110.8,509,102,518.54,99c9.75-3.09,19.63-2,25.17,2.84,2.94,2.56,6.14,7.47,4.63,16.3C545.53,134.64,519.77,136,511.62,136Zm-1.13-.33h0Zm-.27-2.07h0Zm18.93-6.46L525,129.43a91.18,91.18,0,0,1-8.32,4c10.12-.61,27.23-3.47,29.32-15.71,1.06-6.21-.24-11-3.85-14.1-5.6-4.88-15.54-4.7-22.89-2.37-8.33,2.65-14.47,10.4-13.39,16.93,1,5.93,7.73,9.25,18.53,9Z"/><path class="cls-67" d="M564.39,85.33H533.48A4.28,4.28,0,0,1,529.2,81v-31a4.28,4.28,0,0,1,3.94-4.27l32.94-2.67a4.28,4.28,0,0,1,4.62,4.52l-2,33.66A4.28,4.28,0,0,1,564.39,85.33Z"/><path class="cls-11" d="M537.89,79.6A3.58,3.58,0,0,1,534.31,76V56.15a1.32,1.32,0,1,1,2.63,0V76a.94.94,0,0,0,.3.69,1,1,0,0,0,.7.25l23.55-1.4a.94.94,0,0,0,.89-.94V55.11a.93.93,0,0,0-.31-.7,1,1,0,0,0-.73-.24l-19.59,1.94a.94.94,0,0,0-.67,1.49l7.47,10.31a.93.93,0,0,0,.76.39,1,1,0,0,0,.76-.38l8.23-11a1.32,1.32,0,1,1,2.11,1.58l-8.23,11a3.54,3.54,0,0,1-2.86,1.43h0a3.54,3.54,0,0,1-2.87-1.48l-7.47-10.31a3.58,3.58,0,0,1,2.54-5.66l19.59-1.94A3.58,3.58,0,0,1,565,55.11V74.62a3.58,3.58,0,0,1-3.36,3.57l-23.55,1.4Z"/></g></g></g></svg>